<?xml version="1.0" standalone="no"?>
<!DOCTYPE svg PUBLIC "-//W3C//DTD SVG 20010904//EN"
 "http://www.w3.org/TR/2001/REC-SVG-20010904/DTD/svg10.dtd">
<svg version="1.0" xmlns="http://www.w3.org/2000/svg"
 width="500.000000pt" height="500.000000pt" viewBox="0 0 500.000000 500.000000"
 preserveAspectRatio="xMidYMid meet">
<metadata>
Created by potrace 1.14, written by Peter Selinger 2001-2017
</metadata>
<g transform="translate(0.000000,500.000000) scale(0.100000,-0.100000)"
fill="#000000" stroke="none">
<path d="M2405 4981 c-2 -5 -21 -7 -40 -5 -19 1 -35 0 -35 -4 0 -4 -21 -6 -47
-5 -27 0 -51 -4 -55 -10 -6 -9 -8 -8 -8 2 0 11 -3 11 -15 1 -12 -10 -15 -10
-15 0 0 9 -4 10 -13 2 -7 -6 -33 -12 -57 -13 -25 -1 -49 -5 -55 -8 -5 -3 -21
-6 -35 -7 -14 0 -36 -5 -50 -10 -34 -11 -30 -10 -77 -19 -28 -5 -40 -11 -36
-19 4 -6 -2 -4 -12 4 -10 8 -16 10 -12 4 4 -7 -3 -11 -20 -11 -15 0 -29 -5
-31 -11 -2 -6 -10 -8 -18 -5 -8 3 -14 -1 -14 -8 0 -11 -3 -11 -10 1 -6 10 -10
11 -10 3 0 -7 -9 -13 -20 -13 -11 0 -28 -4 -38 -9 -16 -9 -52 -22 -62 -23 -3
0 -14 -5 -25 -11 -11 -6 -26 -10 -34 -8 -7 1 -10 -2 -6 -8 3 -6 -2 -11 -12
-11 -10 0 -35 -9 -55 -19 -19 -11 -39 -17 -42 -14 -3 4 -6 1 -6 -5 0 -7 -7
-12 -16 -12 -9 0 -12 -5 -8 -12 4 -7 3 -8 -4 -4 -11 7 -51 -11 -63 -28 -4 -5
-11 -6 -17 -2 -6 3 -15 -2 -21 -11 -6 -10 -11 -14 -11 -10 0 5 -7 1 -16 -7 -8
-9 -20 -14 -25 -11 -5 4 -9 3 -9 -2 0 -4 -12 -17 -27 -27 -16 -12 -23 -14 -18
-5 5 8 -4 4 -20 -9 -74 -56 -126 -92 -135 -92 -6 0 -10 -4 -10 -9 0 -5 -9 -13
-20 -16 -11 -4 -18 -11 -15 -16 4 -5 -1 -9 -10 -9 -8 0 -18 -7 -21 -15 -4 -8
-12 -15 -20 -15 -8 0 -14 -4 -14 -9 0 -5 -9 -13 -21 -16 -11 -4 -18 -9 -15
-13 3 -3 -8 -13 -24 -23 -17 -11 -30 -23 -30 -29 0 -5 -4 -10 -9 -10 -13 0
-70 -58 -63 -65 3 -3 0 -5 -6 -5 -6 0 -32 -20 -56 -45 -25 -25 -44 -45 -41
-45 2 0 -9 -15 -26 -32 -16 -18 -29 -36 -29 -41 0 -4 -4 -6 -9 -2 -5 3 -12 -4
-16 -15 -3 -11 -11 -20 -16 -20 -5 0 -9 -7 -9 -15 0 -9 -7 -18 -15 -21 -8 -4
-15 -11 -15 -18 0 -6 -11 -20 -25 -30 -13 -10 -22 -22 -19 -27 3 -5 -2 -12
-10 -15 -9 -3 -16 -12 -16 -19 0 -7 -12 -25 -27 -40 -16 -16 -22 -25 -14 -20
7 4 3 -7 -10 -26 -13 -19 -27 -35 -31 -37 -5 -2 -8 -10 -8 -17 0 -8 -6 -20
-13 -27 -23 -26 -38 -59 -31 -70 4 -7 3 -8 -4 -4 -8 5 -12 0 -12 -13 0 -12 -4
-21 -10 -21 -5 0 -10 -7 -10 -15 0 -8 -5 -15 -11 -15 -5 0 -7 -4 -4 -10 3 -5
1 -10 -5 -10 -6 0 -9 -4 -5 -9 3 -5 -2 -16 -10 -24 -8 -9 -15 -22 -15 -29 0
-8 -5 -19 -12 -26 -7 -7 -9 -12 -4 -12 4 0 -3 -14 -15 -32 -13 -17 -18 -29
-12 -25 8 5 8 0 0 -18 -7 -14 -15 -25 -19 -25 -4 0 -5 -9 -3 -20 2 -11 1 -20
-3 -20 -6 0 -29 -62 -38 -100 -6 -30 -18 -67 -24 -75 -3 -5 -6 -19 -6 -30 1
-11 -2 -23 -6 -26 -5 -3 -9 -17 -10 -32 -1 -15 -5 -27 -9 -27 -3 0 -5 -13 -4
-30 1 -16 -1 -30 -5 -30 -3 0 -7 -16 -8 -36 -2 -20 -8 -46 -13 -57 -8 -15 -8
-18 1 -12 9 6 9 3 1 -13 -6 -11 -11 -39 -11 -62 0 -30 -3 -39 -12 -34 -9 5 -9
2 1 -9 11 -14 11 -20 0 -34 -12 -14 -12 -16 0 -8 11 6 12 5 5 -6 -5 -8 -9 -54
-10 -102 -1 -49 -4 -90 -6 -92 -2 -3 -1 -29 2 -60 4 -32 2 -59 -4 -65 -6 -6
-6 -10 0 -10 5 0 8 -22 7 -50 -1 -33 2 -50 10 -50 7 0 6 -4 -3 -10 -13 -9 -13
-11 0 -20 13 -9 13 -10 0 -10 -9 0 -11 -3 -5 -8 15 -11 17 -32 2 -32 -9 0 -9
-2 0 -8 7 -4 13 -31 14 -60 1 -28 5 -49 8 -47 4 2 8 -17 9 -42 1 -25 5 -51 10
-57 4 -6 8 -25 7 -43 -1 -18 2 -30 7 -27 4 3 8 -11 8 -31 0 -20 4 -34 8 -31 4
2 8 -10 7 -27 0 -18 5 -38 12 -44 6 -7 9 -22 6 -33 -3 -11 0 -20 6 -20 6 0 11
-8 11 -18 0 -10 6 -24 13 -31 10 -11 9 -12 -3 -6 -13 8 -13 7 0 -9 8 -10 15
-25 16 -34 2 -9 10 -32 18 -52 21 -47 38 -94 36 -99 -1 -2 3 -7 10 -11 6 -4
12 -16 13 -28 0 -11 5 -18 9 -16 4 3 8 -4 8 -15 0 -12 4 -21 10 -21 5 0 10 -3
9 -8 -2 -15 14 -52 22 -52 5 0 9 -9 9 -20 0 -11 5 -20 11 -20 5 0 7 -4 4 -10
-3 -5 -1 -10 4 -10 6 0 11 -10 11 -22 0 -12 3 -18 6 -15 4 4 17 -14 29 -38 12
-25 24 -42 28 -38 4 3 7 -3 7 -15 0 -12 5 -22 10 -22 6 0 18 -16 27 -35 9 -19
20 -35 25 -35 4 0 8 -7 8 -15 0 -7 6 -18 13 -22 8 -4 22 -22 32 -40 10 -18 22
-30 27 -27 4 3 8 -2 8 -10 0 -9 5 -16 10 -16 6 0 10 -5 10 -11 0 -6 13 -23 30
-39 16 -15 28 -29 26 -31 -2 -2 50 -57 115 -121 66 -65 119 -115 119 -111 0 3
11 -7 25 -23 14 -16 25 -26 25 -22 0 4 12 -4 27 -18 14 -13 40 -35 56 -47 16
-12 35 -28 42 -35 8 -6 18 -12 24 -12 6 0 11 -5 11 -12 0 -6 3 -9 6 -5 3 3 15
-3 27 -14 11 -10 27 -19 34 -19 7 0 13 -4 13 -9 0 -5 8 -12 18 -15 10 -4 28
-15 40 -27 14 -13 22 -15 22 -7 0 8 5 6 11 -5 5 -9 16 -17 23 -17 7 0 22 -9
34 -20 12 -12 22 -18 22 -15 0 3 10 0 23 -7 12 -7 25 -11 30 -10 4 1 7 -3 7
-8 0 -6 8 -10 18 -10 9 0 30 -11 46 -25 32 -28 41 -31 30 -12 -6 9 -4 9 7 0 7
-7 19 -13 27 -13 8 0 26 -9 42 -20 15 -11 30 -17 32 -14 3 3 22 -4 42 -16 20
-11 45 -20 55 -20 10 0 34 -7 54 -15 19 -8 37 -11 41 -8 3 4 6 1 6 -5 0 -7 3
-11 8 -11 4 1 9 0 12 -1 3 -1 18 -4 35 -6 16 -3 35 -10 42 -16 10 -8 13 -7 13
3 0 9 3 10 8 4 4 -6 14 -10 22 -10 8 0 17 -3 21 -7 3 -4 26 -9 52 -11 26 -2
50 -7 54 -10 3 -4 21 -7 40 -7 20 0 33 -5 33 -12 0 -9 4 -8 10 2 9 13 10 13
10 0 0 -13 1 -13 10 0 5 8 10 10 10 4 0 -9 32 -14 125 -18 22 0 43 -5 47 -11
5 -6 8 -5 8 3 0 8 5 10 12 6 16 -10 307 -11 301 -2 -6 11 5 10 29 -3 14 -8 18
-8 14 0 -4 6 5 10 26 11 56 0 92 5 107 14 10 7 12 6 6 -3 -6 -10 -3 -11 13 -2
11 6 37 11 57 11 20 0 34 4 31 8 -3 5 1 9 9 9 8 0 12 -4 9 -9 -3 -4 0 -8 5 -8
6 0 11 5 11 10 0 6 13 10 29 10 16 0 32 6 34 13 4 9 6 9 6 -1 1 -9 6 -10 19
-3 11 6 30 12 43 15 13 3 35 8 49 11 14 3 30 7 35 8 6 2 15 5 20 8 6 3 33 12
60 19 28 7 55 16 60 20 6 3 36 15 68 25 31 11 57 22 57 26 0 7 56 23 77 22 7
0 10 3 7 8 -3 5 2 9 11 9 9 0 14 4 11 8 -2 4 5 9 17 9 12 1 23 7 25 13 2 5 8
8 13 4 5 -3 9 0 9 5 0 6 3 10 8 10 4 -1 16 -1 27 0 17 1 18 3 5 11 -13 8 -12
10 3 10 20 0 80 30 85 43 2 4 8 7 13 7 6 0 37 18 70 40 33 22 64 40 69 40 5 0
10 3 12 8 2 4 31 28 65 53 35 25 60 49 56 52 -3 4 4 7 16 7 12 0 19 4 16 10
-3 6 0 10 8 10 8 0 17 7 21 15 3 8 13 15 21 15 9 0 13 4 10 10 -3 5 -2 10 2
10 5 0 28 18 52 40 23 22 47 40 52 40 5 0 8 4 6 8 -1 5 20 29 47 55 27 26 46
47 43 47 -2 0 15 20 39 45 24 24 44 49 44 54 0 5 10 17 22 25 12 9 19 16 14
16 -5 0 1 9 14 20 13 11 19 20 15 20 -4 0 2 8 13 19 12 10 22 23 22 29 0 6 4
12 9 14 5 2 11 9 13 17 2 7 15 27 31 45 15 17 27 36 27 43 0 7 5 13 11 13 5 0
8 4 5 9 -3 5 0 14 8 20 7 6 21 29 31 51 10 22 21 38 24 35 4 -2 8 6 8 17 1 11
10 27 20 35 10 8 12 11 5 8 -11 -6 -11 -3 0 16 7 13 15 26 18 29 15 15 30 52
25 60 -4 6 -1 10 4 10 6 0 11 9 11 21 0 13 4 18 12 13 8 -5 9 0 6 14 -4 12 -2
22 3 22 5 0 9 9 9 20 0 11 5 20 10 20 6 0 10 11 10 24 0 14 5 28 10 31 6 3 10
15 10 26 0 10 4 19 10 19 5 0 7 7 4 15 -4 8 -1 15 6 15 6 0 8 5 5 10 -4 6 0
24 9 40 9 19 10 28 3 23 -9 -5 -9 -3 -1 8 16 21 37 106 29 118 -3 6 -1 11 4
11 6 0 11 9 11 19 0 11 5 23 11 27 8 4 7 9 -2 15 -11 7 -11 9 1 9 13 0 13 1 0
10 -10 6 -11 10 -2 10 7 0 12 14 12 35 0 21 5 35 13 35 8 0 7 4 -3 10 -8 5
-10 10 -4 10 10 0 13 22 17 118 1 17 4 32 7 32 3 0 5 34 5 75 0 41 4 75 9 75
5 0 4 6 -3 13 -8 10 -7 17 1 25 8 8 8 15 -1 26 -9 11 -9 15 1 18 10 4 10 8 -1
21 -9 11 -10 17 -2 17 6 0 11 5 11 11 0 5 -5 7 -11 3 -8 -5 -8 -1 0 13 6 11 7
24 3 28 -10 10 -9 29 3 37 7 5 7 8 -1 8 -5 0 -10 15 -9 33 1 17 -3 40 -8 51
-7 14 -6 16 4 11 8 -5 10 -4 5 4 -7 11 -15 63 -18 126 -1 17 -5 32 -10 35 -4
3 -8 33 -10 67 -2 33 -6 59 -10 56 -5 -2 -8 9 -8 26 0 16 -4 32 -9 35 -4 3 -7
17 -6 31 2 14 -1 25 -7 25 -6 0 -8 7 -5 15 4 8 2 17 -3 20 -5 3 -6 13 -3 22 5
12 3 14 -7 8 -8 -5 -11 -4 -7 2 7 11 -5 59 -24 98 -6 11 -11 30 -12 42 0 12
-4 20 -8 17 -7 -4 -24 63 -21 79 1 4 -2 7 -7 7 -5 0 -13 10 -17 23 -3 12 -26
63 -50 113 -24 51 -44 97 -44 103 0 6 -3 11 -8 11 -4 0 -16 17 -27 38 -11 20
-26 43 -33 50 -7 8 -10 17 -7 22 3 5 2 10 -2 12 -12 5 -63 75 -63 86 0 6 -7
12 -15 16 -8 3 -15 15 -15 26 0 11 -4 20 -8 20 -5 0 -21 18 -38 41 -16 22 -46
58 -66 80 -21 23 -38 43 -38 46 0 3 -11 16 -25 29 -14 13 -25 26 -25 29 0 9
-89 93 -94 88 -2 -2 -7 5 -11 16 -3 12 -11 21 -16 21 -5 0 -24 15 -43 33 -77
74 -114 106 -120 100 -3 -4 -6 -1 -6 5 0 7 -5 12 -10 12 -6 0 -22 10 -35 23
-36 33 -48 42 -67 50 -10 3 -18 11 -18 17 0 6 -4 8 -10 5 -5 -3 -10 -1 -10 5
0 6 -4 9 -9 6 -5 -3 -12 1 -15 10 -3 8 -10 13 -15 10 -5 -3 -12 1 -15 10 -3 8
-10 12 -16 9 -5 -3 -10 -2 -10 2 0 5 -28 24 -62 42 -35 18 -92 48 -127 67 -35
19 -70 34 -77 34 -8 0 -14 5 -14 11 0 6 -7 8 -16 5 -8 -3 -13 -2 -10 2 3 4
-15 14 -40 21 -24 7 -44 17 -44 22 0 5 -7 6 -15 3 -8 -4 -15 -1 -15 6 0 6 -4
9 -8 6 -5 -3 -21 2 -37 10 -15 8 -39 15 -52 16 -12 1 -23 5 -23 9 0 6 -77 23
-92 20 -5 0 -8 3 -8 7 0 4 -14 9 -32 10 -17 2 -37 7 -43 12 -7 5 -14 7 -18 4
-3 -3 -15 0 -27 6 -17 9 -21 9 -15 0 5 -9 2 -9 -14 -1 -56 29 -59 29 -70 18
-6 -6 -11 -7 -11 -1 0 8 -31 14 -97 17 -7 0 -13 5 -13 11 0 6 -5 4 -10 -4 -8
-12 -10 -12 -10 -1 0 11 -3 11 -17 0 -11 -10 -14 -10 -9 -1 5 9 -7 12 -51 13
-103 2 -185 8 -200 13 -8 3 -11 2 -8 -4 7 -12 -48 -8 -57 5 -5 6 -8 5 -8 -2 0
-9 -7 -10 -25 -3 -13 5 -27 5 -30 1z"/>
</g>
</svg>
