<svg xmlns="http://www.w3.org/2000/svg" xmlns:xlink="http://www.w3.org/1999/xlink" width="512" height="512" viewBox="0 0 512 512"><defs><clipPath id="b"><rect width="512" height="512"/></clipPath></defs><g id="a" clip-path="url(#b)"><path d="M256,0C397.385,0,512,114.615,512,256S397.385,512,256,512,0,397.385,0,256,114.615,0,256,0Z" fill="#8568ff"/><path d="M215.521,0C334.55,0,431.042,96.492,431.042,215.521S334.55,431.042,215.521,431.042,0,334.55,0,215.521,96.492,0,215.521,0Z" transform="translate(40.479 40.479)" fill="#c2b5f9"/><g transform="translate(80.259 80.26)" fill="none"><path d="M175.74,0A175.74,175.74,0,1,1,0,175.74,175.74,175.74,0,0,1,175.74,0Z" stroke="none"/><path d="M 175.7404937744141 25 C 92.62191772460938 25 25 92.62191772460938 25 175.7404937744141 C 25 258.8590698242188 92.62191772460938 326.4809875488281 175.7404937744141 326.4809875488281 C 258.8590698242188 326.4809875488281 326.4809875488281 258.8590698242188 326.4809875488281 175.7404937744141 C 326.4809875488281 92.62191772460938 258.8590698242188 25 175.7404937744141 25 M 175.7404937744141 0 C 272.7992858886719 0 351.4809875488281 78.68170166015625 351.4809875488281 175.7404937744141 C 351.4809875488281 272.7992858886719 272.7992858886719 351.4809875488281 175.7404937744141 351.4809875488281 C 78.68170166015625 351.4809875488281 0 272.7992858886719 0 175.7404937744141 C 0 78.68170166015625 78.68170166015625 0 175.7404937744141 0 Z" stroke="none" fill="#8568ff"/></g><path d="M64.029,244.506,138.14,16.164l74.111,228.342L17.96,103.294H258.32" transform="translate(117.86 121.665)" fill="#2b2c2f"/><path d="M0,512,512,0V512Z" fill="#fff" style="mix-blend-mode:soft-light;isolation:isolate"/></g></svg>